<mxfile host="app.diagrams.net" modified="2024-01-29T14:00:32.843Z" agent="Mozilla/5.0 (Macintosh; Intel Mac OS X 10_15_7) AppleWebKit/605.1.15 (KHTML, like Gecko) Version/17.3 Safari/605.1.15" etag="WdAbQxJv_thZclW6HNBD" version="23.0.2" type="device">
  <diagram name="Modelo Funcional" id="tpMD5HuN3nZZc6Uic2z2">
    <mxGraphModel dx="1590" dy="2024" grid="1" gridSize="10" guides="1" tooltips="1" connect="1" arrows="1" fold="1" page="1" pageScale="1" pageWidth="827" pageHeight="1169" math="0" shadow="0">
      <root>
        <mxCell id="0" />
        <mxCell id="1" parent="0" />
        <mxCell id="y-989zaCAl0JgoU86C5P-11" style="edgeStyle=orthogonalEdgeStyle;rounded=0;orthogonalLoop=1;jettySize=auto;html=1;entryX=0;entryY=0.5;entryDx=0;entryDy=0;" edge="1" parent="1" source="y-989zaCAl0JgoU86C5P-1" target="y-989zaCAl0JgoU86C5P-4">
          <mxGeometry relative="1" as="geometry" />
        </mxCell>
        <mxCell id="y-989zaCAl0JgoU86C5P-12" style="edgeStyle=orthogonalEdgeStyle;rounded=0;orthogonalLoop=1;jettySize=auto;html=1;entryX=0;entryY=0.5;entryDx=0;entryDy=0;" edge="1" parent="1" source="y-989zaCAl0JgoU86C5P-1" target="y-989zaCAl0JgoU86C5P-3">
          <mxGeometry relative="1" as="geometry" />
        </mxCell>
        <mxCell id="y-989zaCAl0JgoU86C5P-44" style="edgeStyle=orthogonalEdgeStyle;rounded=0;orthogonalLoop=1;jettySize=auto;html=1;entryX=0.5;entryY=0;entryDx=0;entryDy=0;" edge="1" parent="1" source="y-989zaCAl0JgoU86C5P-1" target="y-989zaCAl0JgoU86C5P-26">
          <mxGeometry relative="1" as="geometry">
            <Array as="points">
              <mxPoint x="80" y="-10" />
              <mxPoint x="1060" y="-10" />
            </Array>
          </mxGeometry>
        </mxCell>
        <mxCell id="y-989zaCAl0JgoU86C5P-1" value="Consumidor" style="html=1;verticalLabelPosition=bottom;align=center;labelBackgroundColor=#ffffff;verticalAlign=top;strokeWidth=2;strokeColor=#666666;shadow=0;dashed=0;shape=mxgraph.ios7.icons.user;fillColor=#f5f5f5;gradientColor=#b3b3b3;" vertex="1" parent="1">
          <mxGeometry x="60" y="175" width="30" height="30" as="geometry" />
        </mxCell>
        <mxCell id="y-989zaCAl0JgoU86C5P-33" value="" style="edgeStyle=orthogonalEdgeStyle;rounded=0;orthogonalLoop=1;jettySize=auto;html=1;entryX=0;entryY=0.5;entryDx=0;entryDy=0;" edge="1" parent="1" source="y-989zaCAl0JgoU86C5P-2" target="y-989zaCAl0JgoU86C5P-34">
          <mxGeometry relative="1" as="geometry">
            <mxPoint x="529" y="502.5" as="targetPoint" />
          </mxGeometry>
        </mxCell>
        <mxCell id="y-989zaCAl0JgoU86C5P-38" style="edgeStyle=orthogonalEdgeStyle;rounded=0;orthogonalLoop=1;jettySize=auto;html=1;entryX=0;entryY=0.5;entryDx=0;entryDy=0;" edge="1" parent="1" source="y-989zaCAl0JgoU86C5P-2" target="y-989zaCAl0JgoU86C5P-35">
          <mxGeometry relative="1" as="geometry" />
        </mxCell>
        <mxCell id="y-989zaCAl0JgoU86C5P-39" style="edgeStyle=orthogonalEdgeStyle;rounded=0;orthogonalLoop=1;jettySize=auto;html=1;entryX=1;entryY=0.5;entryDx=0;entryDy=0;" edge="1" parent="1" source="y-989zaCAl0JgoU86C5P-2" target="y-989zaCAl0JgoU86C5P-37">
          <mxGeometry relative="1" as="geometry" />
        </mxCell>
        <mxCell id="y-989zaCAl0JgoU86C5P-40" style="edgeStyle=orthogonalEdgeStyle;rounded=0;orthogonalLoop=1;jettySize=auto;html=1;entryX=1;entryY=0.5;entryDx=0;entryDy=0;" edge="1" parent="1" source="y-989zaCAl0JgoU86C5P-2" target="y-989zaCAl0JgoU86C5P-36">
          <mxGeometry relative="1" as="geometry" />
        </mxCell>
        <mxCell id="y-989zaCAl0JgoU86C5P-2" value="Funcionário Adm" style="html=1;verticalLabelPosition=bottom;align=center;labelBackgroundColor=#ffffff;verticalAlign=top;strokeWidth=2;strokeColor=#666666;shadow=0;dashed=0;shape=mxgraph.ios7.icons.user;fillColor=#f5f5f5;gradientColor=#b3b3b3;" vertex="1" parent="1">
          <mxGeometry x="425" y="542.5" width="30" height="30" as="geometry" />
        </mxCell>
        <mxCell id="y-989zaCAl0JgoU86C5P-14" style="edgeStyle=orthogonalEdgeStyle;rounded=0;orthogonalLoop=1;jettySize=auto;html=1;entryX=0.25;entryY=1;entryDx=0;entryDy=0;" edge="1" parent="1" source="y-989zaCAl0JgoU86C5P-3" target="y-989zaCAl0JgoU86C5P-5">
          <mxGeometry relative="1" as="geometry" />
        </mxCell>
        <mxCell id="y-989zaCAl0JgoU86C5P-3" value="Realiza &lt;br&gt;Identificação" style="rounded=0;whiteSpace=wrap;html=1;fillColor=#dae8fc;gradientColor=#7ea6e0;strokeColor=#6c8ebf;" vertex="1" parent="1">
          <mxGeometry x="186" y="220" width="120" height="60" as="geometry" />
        </mxCell>
        <mxCell id="y-989zaCAl0JgoU86C5P-13" style="edgeStyle=orthogonalEdgeStyle;rounded=0;orthogonalLoop=1;jettySize=auto;html=1;entryX=0.25;entryY=0;entryDx=0;entryDy=0;" edge="1" parent="1" source="y-989zaCAl0JgoU86C5P-4" target="y-989zaCAl0JgoU86C5P-5">
          <mxGeometry relative="1" as="geometry" />
        </mxCell>
        <mxCell id="y-989zaCAl0JgoU86C5P-4" value="Seguir sem identificação" style="rounded=0;whiteSpace=wrap;html=1;fillColor=#dae8fc;gradientColor=#7ea6e0;strokeColor=#6c8ebf;" vertex="1" parent="1">
          <mxGeometry x="186" y="100" width="120" height="60" as="geometry" />
        </mxCell>
        <mxCell id="y-989zaCAl0JgoU86C5P-15" style="edgeStyle=orthogonalEdgeStyle;rounded=0;orthogonalLoop=1;jettySize=auto;html=1;entryX=0;entryY=0.5;entryDx=0;entryDy=0;" edge="1" parent="1" source="y-989zaCAl0JgoU86C5P-5" target="y-989zaCAl0JgoU86C5P-6">
          <mxGeometry relative="1" as="geometry" />
        </mxCell>
        <mxCell id="y-989zaCAl0JgoU86C5P-43" value="" style="edgeStyle=orthogonalEdgeStyle;rounded=0;orthogonalLoop=1;jettySize=auto;html=1;" edge="1" parent="1" source="y-989zaCAl0JgoU86C5P-5" target="y-989zaCAl0JgoU86C5P-42">
          <mxGeometry relative="1" as="geometry" />
        </mxCell>
        <mxCell id="y-989zaCAl0JgoU86C5P-5" value="Seleciona Itens Pedido" style="rounded=0;whiteSpace=wrap;html=1;fillColor=#dae8fc;gradientColor=#7ea6e0;strokeColor=#6c8ebf;" vertex="1" parent="1">
          <mxGeometry x="356" y="160" width="120" height="60" as="geometry" />
        </mxCell>
        <mxCell id="y-989zaCAl0JgoU86C5P-16" style="edgeStyle=orthogonalEdgeStyle;rounded=0;orthogonalLoop=1;jettySize=auto;html=1;entryX=0;entryY=0.5;entryDx=0;entryDy=0;" edge="1" parent="1" source="y-989zaCAl0JgoU86C5P-6" target="y-989zaCAl0JgoU86C5P-7">
          <mxGeometry relative="1" as="geometry" />
        </mxCell>
        <mxCell id="y-989zaCAl0JgoU86C5P-6" value="Finaliza Pedido" style="rounded=0;whiteSpace=wrap;html=1;fillColor=#dae8fc;gradientColor=#7ea6e0;strokeColor=#6c8ebf;" vertex="1" parent="1">
          <mxGeometry x="527" y="160" width="120" height="60" as="geometry" />
        </mxCell>
        <mxCell id="y-989zaCAl0JgoU86C5P-10" value="" style="edgeStyle=orthogonalEdgeStyle;rounded=0;orthogonalLoop=1;jettySize=auto;html=1;" edge="1" parent="1" source="y-989zaCAl0JgoU86C5P-7" target="y-989zaCAl0JgoU86C5P-8">
          <mxGeometry relative="1" as="geometry" />
        </mxCell>
        <mxCell id="y-989zaCAl0JgoU86C5P-18" value="" style="edgeStyle=orthogonalEdgeStyle;rounded=0;orthogonalLoop=1;jettySize=auto;html=1;" edge="1" parent="1" source="y-989zaCAl0JgoU86C5P-7" target="y-989zaCAl0JgoU86C5P-17">
          <mxGeometry relative="1" as="geometry" />
        </mxCell>
        <mxCell id="y-989zaCAl0JgoU86C5P-7" value="Efetua Pagamento" style="rounded=0;whiteSpace=wrap;html=1;fillColor=#dae8fc;gradientColor=#7ea6e0;strokeColor=#6c8ebf;" vertex="1" parent="1">
          <mxGeometry x="698" y="160" width="120" height="60" as="geometry" />
        </mxCell>
        <mxCell id="y-989zaCAl0JgoU86C5P-8" value="Integração&lt;br&gt;Mercado Pago&lt;br&gt;&amp;nbsp;QR Code" style="rounded=0;whiteSpace=wrap;html=1;fillColor=#ffcd28;gradientColor=#ffa500;strokeColor=#d79b00;" vertex="1" parent="1">
          <mxGeometry x="698" y="20" width="120" height="60" as="geometry" />
        </mxCell>
        <mxCell id="y-989zaCAl0JgoU86C5P-25" style="edgeStyle=orthogonalEdgeStyle;rounded=0;orthogonalLoop=1;jettySize=auto;html=1;entryX=0.5;entryY=0;entryDx=0;entryDy=0;exitX=0.5;exitY=1;exitDx=0;exitDy=0;" edge="1" parent="1" source="y-989zaCAl0JgoU86C5P-17" target="y-989zaCAl0JgoU86C5P-20">
          <mxGeometry relative="1" as="geometry">
            <Array as="points">
              <mxPoint x="887" y="310" />
              <mxPoint x="240" y="310" />
            </Array>
          </mxGeometry>
        </mxCell>
        <mxCell id="y-989zaCAl0JgoU86C5P-17" value="Pedido Confirmado" style="rounded=0;whiteSpace=wrap;html=1;fillColor=#dae8fc;gradientColor=#7ea6e0;strokeColor=#6c8ebf;" vertex="1" parent="1">
          <mxGeometry x="868" y="160" width="120" height="60" as="geometry" />
        </mxCell>
        <mxCell id="y-989zaCAl0JgoU86C5P-41" style="edgeStyle=orthogonalEdgeStyle;rounded=0;orthogonalLoop=1;jettySize=auto;html=1;" edge="1" parent="1" source="y-989zaCAl0JgoU86C5P-19" target="y-989zaCAl0JgoU86C5P-20">
          <mxGeometry relative="1" as="geometry" />
        </mxCell>
        <mxCell id="y-989zaCAl0JgoU86C5P-19" value="Cozinheiro" style="html=1;verticalLabelPosition=bottom;align=center;labelBackgroundColor=#ffffff;verticalAlign=top;strokeWidth=2;strokeColor=#666666;shadow=0;dashed=0;shape=mxgraph.ios7.icons.user;fillColor=#f5f5f5;gradientColor=#b3b3b3;" vertex="1" parent="1">
          <mxGeometry x="60" y="365" width="30" height="30" as="geometry" />
        </mxCell>
        <mxCell id="y-989zaCAl0JgoU86C5P-22" value="" style="edgeStyle=orthogonalEdgeStyle;rounded=0;orthogonalLoop=1;jettySize=auto;html=1;" edge="1" parent="1" source="y-989zaCAl0JgoU86C5P-20" target="y-989zaCAl0JgoU86C5P-21">
          <mxGeometry relative="1" as="geometry" />
        </mxCell>
        <mxCell id="y-989zaCAl0JgoU86C5P-20" value="Recebe Pedido" style="rounded=0;whiteSpace=wrap;html=1;fillColor=#dae8fc;gradientColor=#7ea6e0;strokeColor=#6c8ebf;" vertex="1" parent="1">
          <mxGeometry x="186" y="350" width="120" height="60" as="geometry" />
        </mxCell>
        <mxCell id="y-989zaCAl0JgoU86C5P-24" value="" style="edgeStyle=orthogonalEdgeStyle;rounded=0;orthogonalLoop=1;jettySize=auto;html=1;" edge="1" parent="1" source="y-989zaCAl0JgoU86C5P-21" target="y-989zaCAl0JgoU86C5P-23">
          <mxGeometry relative="1" as="geometry" />
        </mxCell>
        <mxCell id="y-989zaCAl0JgoU86C5P-21" value="Inicia Preparação" style="rounded=0;whiteSpace=wrap;html=1;fillColor=#dae8fc;gradientColor=#7ea6e0;strokeColor=#6c8ebf;" vertex="1" parent="1">
          <mxGeometry x="380" y="350" width="120" height="60" as="geometry" />
        </mxCell>
        <mxCell id="y-989zaCAl0JgoU86C5P-27" value="" style="edgeStyle=orthogonalEdgeStyle;rounded=0;orthogonalLoop=1;jettySize=auto;html=1;exitX=1;exitY=0.5;exitDx=0;exitDy=0;" edge="1" parent="1" source="y-989zaCAl0JgoU86C5P-28" target="y-989zaCAl0JgoU86C5P-26">
          <mxGeometry relative="1" as="geometry" />
        </mxCell>
        <mxCell id="y-989zaCAl0JgoU86C5P-29" value="" style="edgeStyle=orthogonalEdgeStyle;rounded=0;orthogonalLoop=1;jettySize=auto;html=1;" edge="1" parent="1" source="y-989zaCAl0JgoU86C5P-23" target="y-989zaCAl0JgoU86C5P-28">
          <mxGeometry relative="1" as="geometry" />
        </mxCell>
        <mxCell id="y-989zaCAl0JgoU86C5P-23" value="Finaliza Pedido" style="rounded=0;whiteSpace=wrap;html=1;fillColor=#dae8fc;gradientColor=#7ea6e0;strokeColor=#6c8ebf;" vertex="1" parent="1">
          <mxGeometry x="580" y="350" width="120" height="60" as="geometry" />
        </mxCell>
        <mxCell id="y-989zaCAl0JgoU86C5P-31" value="" style="edgeStyle=orthogonalEdgeStyle;rounded=0;orthogonalLoop=1;jettySize=auto;html=1;" edge="1" parent="1" source="y-989zaCAl0JgoU86C5P-45" target="y-989zaCAl0JgoU86C5P-30">
          <mxGeometry relative="1" as="geometry" />
        </mxCell>
        <mxCell id="y-989zaCAl0JgoU86C5P-26" value="Retira Pedido" style="rounded=0;whiteSpace=wrap;html=1;fillColor=#dae8fc;gradientColor=#7ea6e0;strokeColor=#6c8ebf;" vertex="1" parent="1">
          <mxGeometry x="1039" y="160" width="120" height="60" as="geometry" />
        </mxCell>
        <mxCell id="y-989zaCAl0JgoU86C5P-28" value="Notifica Cliente" style="rounded=0;whiteSpace=wrap;html=1;fillColor=#dae8fc;gradientColor=#7ea6e0;strokeColor=#6c8ebf;" vertex="1" parent="1">
          <mxGeometry x="780" y="350" width="120" height="60" as="geometry" />
        </mxCell>
        <mxCell id="y-989zaCAl0JgoU86C5P-30" value="Pedido Finalizado" style="rounded=0;whiteSpace=wrap;html=1;fillColor=#d5e8d4;gradientColor=#97d077;strokeColor=#82b366;" vertex="1" parent="1">
          <mxGeometry x="1380" y="160" width="120" height="60" as="geometry" />
        </mxCell>
        <mxCell id="y-989zaCAl0JgoU86C5P-34" value="Gerenciar &lt;br&gt;Clientes" style="rounded=0;whiteSpace=wrap;html=1;fillColor=#dae8fc;gradientColor=#7ea6e0;strokeColor=#6c8ebf;" vertex="1" parent="1">
          <mxGeometry x="580" y="470" width="120" height="60" as="geometry" />
        </mxCell>
        <mxCell id="y-989zaCAl0JgoU86C5P-35" value="Gerenciar &lt;br&gt;Pedidos" style="rounded=0;whiteSpace=wrap;html=1;fillColor=#dae8fc;gradientColor=#7ea6e0;strokeColor=#6c8ebf;" vertex="1" parent="1">
          <mxGeometry x="580" y="585" width="120" height="60" as="geometry" />
        </mxCell>
        <mxCell id="y-989zaCAl0JgoU86C5P-36" value="Gerenciar &lt;br&gt;Produtos" style="rounded=0;whiteSpace=wrap;html=1;fillColor=#dae8fc;gradientColor=#7ea6e0;strokeColor=#6c8ebf;" vertex="1" parent="1">
          <mxGeometry x="186" y="470" width="120" height="60" as="geometry" />
        </mxCell>
        <mxCell id="y-989zaCAl0JgoU86C5P-37" value="Gerenciar &lt;br&gt;Categorias" style="rounded=0;whiteSpace=wrap;html=1;fillColor=#dae8fc;gradientColor=#7ea6e0;strokeColor=#6c8ebf;" vertex="1" parent="1">
          <mxGeometry x="186" y="585" width="120" height="60" as="geometry" />
        </mxCell>
        <mxCell id="y-989zaCAl0JgoU86C5P-42" value="Cancela Pedido" style="whiteSpace=wrap;html=1;fillColor=#f8cecc;strokeColor=#b85450;rounded=0;gradientColor=#ea6b66;" vertex="1" parent="1">
          <mxGeometry x="356" y="20" width="120" height="60" as="geometry" />
        </mxCell>
        <mxCell id="y-989zaCAl0JgoU86C5P-46" value="" style="edgeStyle=orthogonalEdgeStyle;rounded=0;orthogonalLoop=1;jettySize=auto;html=1;" edge="1" parent="1" source="y-989zaCAl0JgoU86C5P-26" target="y-989zaCAl0JgoU86C5P-45">
          <mxGeometry relative="1" as="geometry">
            <mxPoint x="1120" y="190" as="sourcePoint" />
            <mxPoint x="1380" y="190" as="targetPoint" />
          </mxGeometry>
        </mxCell>
        <mxCell id="y-989zaCAl0JgoU86C5P-45" value="Retira Pedido" style="rounded=0;whiteSpace=wrap;html=1;fillColor=#dae8fc;gradientColor=#7ea6e0;strokeColor=#6c8ebf;" vertex="1" parent="1">
          <mxGeometry x="1209" y="160" width="120" height="60" as="geometry" />
        </mxCell>
      </root>
    </mxGraphModel>
  </diagram>
</mxfile>
